<?xml version="1.0" encoding="UTF-8"?>
<svg version="1.1" xmlns="http://www.w3.org/2000/svg" width="512" height="512">
<path d="M0 0 C168.96 0 337.92 0 512 0 C512 168.96 512 337.92 512 512 C343.04 512 174.08 512 0 512 C0 343.04 0 174.08 0 0 Z " fill="#3B82F6" transform="translate(0,0)"/>
<path d="M0 0 C14.4596143 13.74810947 19.08877956 34.59760237 19.99304581 53.84242058 C20.05589922 57.87358187 20.06085045 61.90003283 20.03955078 65.93139648 C20.03898483 67.46068311 20.0393068 68.98997028 20.04043579 70.51925659 C20.04100315 74.61952642 20.02935031 78.71967616 20.01528788 82.81991839 C20.00267618 87.12400352 20.00160187 91.42809224 19.99923706 95.73219299 C19.99305267 103.85968413 19.97668358 111.98712063 19.95653808 120.11458784 C19.9340837 129.37714595 19.9231618 138.63970685 19.91314721 147.90228546 C19.8923142 166.93489411 19.85567659 185.96742801 19.8125 205 C7.9325 205 -3.9475 205 -16.1875 205 C-18.1675 196.09 -18.1675 196.09 -20.1875 187 C-23.59473461 188.70361731 -26.08179816 190.38175952 -29.0625 192.6875 C-50.31388216 208.23798017 -74.29335438 211.17954504 -99.9609375 208.609375 C-112.57898527 206.64488852 -125.72906201 200.74905514 -135.1875 192 C-135.8371875 191.40316406 -136.486875 190.80632812 -137.15625 190.19140625 C-141.63919622 185.63087057 -144.68621217 180.656436 -147.5625 175 C-148.06330078 174.02184326 -148.06330078 174.02184326 -148.57421875 173.02392578 C-152.75358502 164.38785874 -153.51314766 156.13138931 -153.4375 146.625 C-153.44523437 145.66078125 -153.45296875 144.6965625 -153.4609375 143.703125 C-153.41938106 128.20257294 -149.63251204 114.71657872 -139.1875 103 C-138.67703125 102.39671875 -138.1665625 101.7934375 -137.640625 101.171875 C-116.81633953 78.28577909 -75.95692047 73.33078119 -46.70800781 71.8203125 C-38.87009564 71.47569872 -31.02992944 71.21635501 -23.1875 71 C-23.29885894 67.5202594 -23.42912132 64.04146066 -23.5625 60.5625 C-23.60890625 59.10166992 -23.60890625 59.10166992 -23.65625 57.61132812 C-24.07925653 47.07141552 -25.29910605 36.21412402 -33.4375 28.6875 C-44.64628559 19.83592683 -61.07942019 20.96057951 -74.52001953 22.21826172 C-89.36460385 24.17393861 -103.33382414 29.34766419 -116.859375 35.546875 C-119.38987729 36.6517422 -121.53352293 37.39399652 -124.1875 38 C-125.79507412 33.85548003 -127.39793498 29.70915229 -129 25.5625 C-129.45181641 24.39783203 -129.90363281 23.23316406 -130.36914062 22.03320312 C-132.80081467 15.73214994 -135.11774417 9.42930796 -137.1875 3 C-98.77572478 -18.88012512 -37.09973528 -30.44659126 0 0 Z " fill="#F7F9FA" transform="translate(211.1875,160)"/>
<path d="M0 0 C1.34950874 0.99935211 2.68382211 2.01964131 4 3.0625 C4.99 3.77599609 4.99 3.77599609 6 4.50390625 C21.36917623 16.48105726 27.96673131 37.8049066 30.2925787 56.40189838 C31.06084673 64.17815137 31.13523349 71.90550247 31.11352539 79.71362305 C31.11324268 81.1536509 31.11340289 82.5936789 31.1139679 84.03370667 C31.1142526 87.90897764 31.10840904 91.7842171 31.10139394 95.65948081 C31.09510567 99.72202628 31.0945523 103.78457261 31.09336853 107.84712219 C31.09027126 115.52494447 31.08207967 123.20275236 31.07201904 130.88056833 C31.06080787 139.62793432 31.05533488 148.37530104 31.05032361 157.12267244 C31.03989558 175.10262475 31.02157022 193.08255736 31 211.0625 C16.48 211.0625 1.96 211.0625 -13 211.0625 C-13.02187378 204.34869995 -13.02187378 204.34869995 -13.04418945 197.49926758 C-13.09459615 182.68722399 -13.16105363 167.87528424 -13.23571491 153.063344 C-13.2805785 144.08561697 -13.32001466 135.10792877 -13.34643555 126.13012695 C-13.36949235 118.30020845 -13.40297537 110.47041382 -13.44870156 102.64059371 C-13.47253073 98.49917052 -13.49132672 94.35786922 -13.49761391 90.21637917 C-13.50371182 86.30848246 -13.52387869 82.40089721 -13.55427551 78.49311638 C-13.56298108 77.06826068 -13.56679408 75.64336415 -13.56500816 74.21848297 C-13.55385653 61.20158802 -14.63228094 47.63492267 -23.3125 37.3125 C-34.84335671 27.6587595 -48.67543473 28.02682969 -63 29.0625 C-76.14947631 30.79717422 -88.67058466 37.75787654 -97 48.0625 C-106.83086704 61.70030872 -107.126973 76.16431027 -107.20532227 92.4284668 C-107.21522186 93.7175444 -107.22512146 95.00662201 -107.23532104 96.33476257 C-107.2620909 99.83398053 -107.2832495 103.3332116 -107.30332303 106.83247352 C-107.32535722 110.50266319 -107.3526597 114.17281379 -107.37937927 117.8429718 C-107.4290726 124.77703037 -107.47409697 131.7111109 -107.51740164 138.64521199 C-107.56697512 146.54618901 -107.62181793 154.44712679 -107.67708123 162.34806573 C-107.79054215 178.58617545 -107.8967624 194.82432158 -108 211.0625 C-122.19 211.0625 -136.38 211.0625 -151 211.0625 C-151 139.1225 -151 67.1825 -151 -6.9375 C-138.46 -6.9375 -125.92 -6.9375 -113 -6.9375 C-112.0625 2.4375 -112.0625 2.4375 -111.77368164 5.38818359 C-111.69496826 6.15469238 -111.61625488 6.92120117 -111.53515625 7.7109375 C-111.456604 8.49645996 -111.37805176 9.28198242 -111.29711914 10.09130859 C-111.09303702 12.13384803 -111.09303702 12.13384803 -110 14.0625 C-109.42894531 13.5778125 -108.85789062 13.093125 -108.26953125 12.59375 C-94.25717746 1.00961015 -79.73833828 -6.07680284 -62 -9.9375 C-61.21939209 -10.11095947 -60.43878418 -10.28441895 -59.63452148 -10.46313477 C-40.19904279 -13.9626376 -16.73816261 -10.74584277 0 0 Z " fill="#F7F9FA" transform="translate(424,153.9375)"/>
<path d="M0 0 C0.15042801 4.19501302 0.25816494 8.38852209 0.32958984 12.58544922 C0.35941841 14.00727743 0.40009869 15.42892738 0.45263672 16.85009766 C0.87038228 28.45687136 -1.36787958 36.58507035 -8.2734375 46.1484375 C-20.6503907 59.26156635 -34.72980412 66.72363899 -53.05151367 67.34350586 C-62.35891514 67.48073923 -70.42358614 66.47668284 -77.9609375 60.42578125 C-83.98888938 54.11848526 -85.17296831 46.91441292 -85.375 38.4375 C-85.12084208 28.63286962 -83.06875346 23.17740229 -76.26953125 16.03515625 C-64.21491358 5.22542164 -45.16147479 3.64015456 -29.75 1.6875 C-29.07539734 1.60023651 -28.40079468 1.51297302 -27.70574951 1.42306519 C-18.40351591 0.24075031 -9.36765151 -0.22151998 0 0 Z " fill="#3C82F6" transform="translate(187,265)"/>
<path d="M0 0 C0.33 0 0.66 0 1 0 C1 13.53 1 27.06 1 41 C-12.53 41 -26.06 41 -40 41 C-36.77794772 39.38897386 -33.66489916 38.09649079 -30.3125 36.8125 C-16.32964928 30.99481758 -7.86955879 20.70813891 -2 7 C-1.17794005 4.65968578 -0.55034658 2.42152494 0 0 Z " fill="#000000" transform="translate(511,471)"/>
<path d="M0 0 C1.61102614 3.22205228 2.90350921 6.33510084 4.1875 9.6875 C10.00518242 23.67035072 20.29186109 32.13044121 34 38 C36.34031422 38.82205995 38.57847506 39.44965342 41 40 C41 40.33 41 40.66 41 41 C27.47 41 13.94 41 0 41 C0 27.47 0 13.94 0 0 Z " fill="#000000" transform="translate(0,471)"/>
<path d="M0 0 C13.53 0 27.06 0 41 0 C41 13.53 41 27.06 41 41 C39.38897386 37.77794772 38.09649079 34.66489916 36.8125 31.3125 C30.99481758 17.32964928 20.70813891 8.86955879 7 3 C4.65968578 2.17794005 2.42152494 1.55034658 0 1 C0 0.67 0 0.34 0 0 Z " fill="#000000" transform="translate(471,0)"/>
<path d="M0 0 C13.53 0 27.06 0 41 0 C37.77794772 1.61102614 34.66489916 2.90350921 31.3125 4.1875 C17.32964928 10.00518242 8.86955879 20.29186109 3 34 C2.17794005 36.34031422 1.55034658 38.57847506 1 41 C0.67 41 0.34 41 0 41 C0 27.47 0 13.94 0 0 Z " fill="#000000" transform="translate(0,0)"/>
</svg>
